<mxfile host="app.diagrams.net" modified="2022-12-21T10:16:04.702Z" agent="5.0 (Macintosh; Intel Mac OS X 10_15_7) AppleWebKit/537.36 (KHTML, like Gecko) Chrome/108.0.0.0 Safari/537.36" etag="daL_34nJnjlkbD74L1AQ" version="20.7.4" type="github">
  <diagram id="R2lEEEUBdFMjLlhIrx00" name="Page-1">
    <mxGraphModel dx="1235" dy="835" grid="1" gridSize="10" guides="1" tooltips="1" connect="1" arrows="1" fold="1" page="1" pageScale="1" pageWidth="850" pageHeight="1100" math="0" shadow="0" extFonts="Permanent Marker^https://fonts.googleapis.com/css?family=Permanent+Marker">
      <root>
        <mxCell id="0" />
        <mxCell id="1" parent="0" />
        <mxCell id="7a1DkN9BYMubpffj_wRF-4" value="" style="endArrow=classic;html=1;rounded=0;exitX=1;exitY=0.5;exitDx=0;exitDy=0;entryX=0;entryY=0.5;entryDx=0;entryDy=0;" edge="1" parent="1" source="7a1DkN9BYMubpffj_wRF-5" target="7a1DkN9BYMubpffj_wRF-28">
          <mxGeometry width="50" height="50" relative="1" as="geometry">
            <mxPoint x="330" y="260" as="sourcePoint" />
            <mxPoint x="450" y="240" as="targetPoint" />
          </mxGeometry>
        </mxCell>
        <mxCell id="7a1DkN9BYMubpffj_wRF-5" value="votes&lt;br&gt;(투표 생성)" style="whiteSpace=wrap;html=1;aspect=fixed;" vertex="1" parent="1">
          <mxGeometry x="170" y="196" width="80" height="80" as="geometry" />
        </mxCell>
        <mxCell id="7a1DkN9BYMubpffj_wRF-8" value="kafka" style="shape=cylinder;whiteSpace=wrap;html=1;boundedLbl=1;backgroundOutline=1;" vertex="1" parent="1">
          <mxGeometry x="430" y="250" width="60" height="80" as="geometry" />
        </mxCell>
        <mxCell id="7a1DkN9BYMubpffj_wRF-34" style="edgeStyle=orthogonalEdgeStyle;rounded=0;orthogonalLoop=1;jettySize=auto;html=1;exitX=0.9;exitY=0.5;exitDx=0;exitDy=0;exitPerimeter=0;entryX=0;entryY=0.5;entryDx=0;entryDy=0;" edge="1" parent="1" source="7a1DkN9BYMubpffj_wRF-9" target="7a1DkN9BYMubpffj_wRF-5">
          <mxGeometry relative="1" as="geometry" />
        </mxCell>
        <mxCell id="7a1DkN9BYMubpffj_wRF-35" style="edgeStyle=orthogonalEdgeStyle;rounded=0;orthogonalLoop=1;jettySize=auto;html=1;exitX=0.75;exitY=1;exitDx=0;exitDy=0;" edge="1" parent="1" source="7a1DkN9BYMubpffj_wRF-9" target="7a1DkN9BYMubpffj_wRF-11">
          <mxGeometry relative="1" as="geometry" />
        </mxCell>
        <mxCell id="7a1DkN9BYMubpffj_wRF-9" value="&lt;br&gt;user1" style="shape=actor;whiteSpace=wrap;html=1;" vertex="1" parent="1">
          <mxGeometry x="60" y="270" width="40" height="60" as="geometry" />
        </mxCell>
        <mxCell id="7a1DkN9BYMubpffj_wRF-32" style="edgeStyle=orthogonalEdgeStyle;rounded=0;orthogonalLoop=1;jettySize=auto;html=1;exitX=1;exitY=0.5;exitDx=0;exitDy=0;entryX=0;entryY=0.5;entryDx=0;entryDy=0;" edge="1" parent="1" source="7a1DkN9BYMubpffj_wRF-11" target="7a1DkN9BYMubpffj_wRF-28">
          <mxGeometry relative="1" as="geometry" />
        </mxCell>
        <mxCell id="7a1DkN9BYMubpffj_wRF-11" value="survey&lt;br&gt;(설문 생성)" style="whiteSpace=wrap;html=1;aspect=fixed;" vertex="1" parent="1">
          <mxGeometry x="170" y="316" width="80" height="80" as="geometry" />
        </mxCell>
        <mxCell id="7a1DkN9BYMubpffj_wRF-12" value="&lt;br&gt;user3" style="shape=actor;whiteSpace=wrap;html=1;" vertex="1" parent="1">
          <mxGeometry x="550" y="246" width="40" height="60" as="geometry" />
        </mxCell>
        <mxCell id="7a1DkN9BYMubpffj_wRF-16" value="&lt;br&gt;N" style="shape=actor;whiteSpace=wrap;html=1;" vertex="1" parent="1">
          <mxGeometry x="550" y="330" width="40" height="60" as="geometry" />
        </mxCell>
        <mxCell id="7a1DkN9BYMubpffj_wRF-17" value="&lt;br&gt;user2" style="shape=actor;whiteSpace=wrap;html=1;" vertex="1" parent="1">
          <mxGeometry x="550" y="170" width="40" height="60" as="geometry" />
        </mxCell>
        <mxCell id="7a1DkN9BYMubpffj_wRF-18" value="" style="endArrow=classic;html=1;rounded=0;exitX=1;exitY=0.5;exitDx=0;exitDy=0;entryX=0;entryY=0.75;entryDx=0;entryDy=0;" edge="1" parent="1" source="7a1DkN9BYMubpffj_wRF-8" target="7a1DkN9BYMubpffj_wRF-17">
          <mxGeometry width="50" height="50" relative="1" as="geometry">
            <mxPoint x="380" y="300" as="sourcePoint" />
            <mxPoint x="440" y="300" as="targetPoint" />
          </mxGeometry>
        </mxCell>
        <mxCell id="7a1DkN9BYMubpffj_wRF-19" value="" style="endArrow=classic;html=1;rounded=0;exitX=1;exitY=0.5;exitDx=0;exitDy=0;entryX=0;entryY=0.75;entryDx=0;entryDy=0;" edge="1" parent="1" source="7a1DkN9BYMubpffj_wRF-8" target="7a1DkN9BYMubpffj_wRF-12">
          <mxGeometry width="50" height="50" relative="1" as="geometry">
            <mxPoint x="500" y="300" as="sourcePoint" />
            <mxPoint x="600" y="225" as="targetPoint" />
          </mxGeometry>
        </mxCell>
        <mxCell id="7a1DkN9BYMubpffj_wRF-20" value="" style="endArrow=classic;html=1;rounded=0;entryX=0;entryY=0.75;entryDx=0;entryDy=0;" edge="1" parent="1" target="7a1DkN9BYMubpffj_wRF-16">
          <mxGeometry width="50" height="50" relative="1" as="geometry">
            <mxPoint x="490" y="290" as="sourcePoint" />
            <mxPoint x="610" y="235" as="targetPoint" />
          </mxGeometry>
        </mxCell>
        <mxCell id="7a1DkN9BYMubpffj_wRF-36" style="edgeStyle=orthogonalEdgeStyle;rounded=0;orthogonalLoop=1;jettySize=auto;html=1;exitX=1;exitY=0.5;exitDx=0;exitDy=0;entryX=0;entryY=0.5;entryDx=0;entryDy=0;" edge="1" parent="1" source="7a1DkN9BYMubpffj_wRF-28" target="7a1DkN9BYMubpffj_wRF-8">
          <mxGeometry relative="1" as="geometry" />
        </mxCell>
        <mxCell id="7a1DkN9BYMubpffj_wRF-28" value="user_contents" style="whiteSpace=wrap;html=1;aspect=fixed;" vertex="1" parent="1">
          <mxGeometry x="290" y="236" width="110" height="110" as="geometry" />
        </mxCell>
      </root>
    </mxGraphModel>
  </diagram>
</mxfile>
